<svg version="1.1" viewBox="0.0 0.0 256.0 256.0" fill="none" stroke="none" stroke-linecap="square" stroke-miterlimit="10" xmlns:xlink="http://www.w3.org/1999/xlink" xmlns="http://www.w3.org/2000/svg"><clipPath id="p.0"><path d="m0 0l256.0 0l0 256.0l-256.0 0l0 -256.0z" clip-rule="nonzero"/></clipPath><g clip-path="url(#p.0)"><path fill="#000000" fill-opacity="0.0" d="m0 0l256.0 0l0 256.0l-256.0 0z" fill-rule="evenodd"/><path fill="#000000" fill-opacity="0.0" d="m-27.043509 -61.974068l178.76283 0l0 370.97827l-178.76283 0z" fill-rule="evenodd"/><path fill="#c03021" d="m97.55024 30.369682q24.796875 0 39.187508 5.734375q14.40625 5.734375 19.609375 19.203125q5.203125 13.453125 1.734375 36.65625q-3.203125 23.734375 -10.796875 36.406242q-7.59375 12.65625 -21.468758 17.328125q-13.859375 4.671875 -36.53125 4.671875q-12.0 0 -23.46875 -1.0625q-11.46875 -1.078125 -21.328125 -2.671875q-9.859375 -1.609375 -16.937498 -3.46875q-7.0625 -1.875 -9.734375 -3.46875l1.609375 -19.734367q16.265623 0 33.453125 0q17.203125 0 33.46875 0q10.671875 0 16.9375 -2.390625q6.265625 -2.40625 9.59375 -9.078125q3.34375 -6.671875 5.203125 -19.46875q1.609375 -11.1875 0.140625 -17.1875q-1.46875 -6.0 -6.671875 -8.40625q-5.203125 -2.40625 -15.0625 -2.40625q-24.796875 0 -42.265625 0.28125q-17.46875 0.265625 -23.593748 1.0625l-1.34375 -29.34375q11.203123 -1.328125 20.796873 -1.859375q9.609375 -0.53125 20.671875 -0.65625q11.0625 -0.140625 26.796875 -0.140625zm-27.734375 2.65625l-25.859375 184.0l-40.53125 0l25.859375 -184.0l40.53125 0z" fill-rule="nonzero"/><path fill="#000000" fill-opacity="0.0" d="m30.237434 268.6826l0 -250.0334l314.39438 0l0 250.0334z" fill-rule="evenodd"/><path fill="#c03021" d="m114.90618 112.47945q-0.859375 -10.3125 8.59375 -18.90625l61.874992 -55.0l60.15625 54.140625q10.3125 9.453125 10.3125 18.046875q0 6.875 -5.15625 12.890625q-4.296875 6.875 -12.890625 6.875q-8.59375 0 -13.75 -5.15625l-20.625 -18.046875l0 103.125q0 7.734375 -5.15625 12.890625q-6.015625 6.015625 -14.609375 5.15625q-6.875 -0.859375 -11.171875 -5.15625q-5.15625 -5.15625 -6.015625 -12.890625l0 -103.125l-18.90625 17.1875q-7.734375 6.015625 -14.609375 6.015625q-6.8749924 -0.859375 -12.890617 -6.875q-3.4375 -5.15625 -5.15625 -11.171875z" fill-rule="nonzero"/></g></svg>